advent_pro_thn.ufo
<glyph name="numbersign" format="1">
  <advance width="607"/>
  <unicode hex="0023"/>
  <outline>
    <contour>
      <point x="389" y="243" type="line"/>
      <point x="576" y="243" type="line"/>
      <point x="576" y="226" type="line"/>
      <point x="386" y="226" type="line"/>
      <point x="333" y="0" type="line"/>
      <point x="315" y="0" type="line"/>
      <point x="367" y="226" type="line"/>
      <point x="176" y="226" type="line"/>
      <point x="123" y="0" type="line"/>
      <point x="105" y="0" type="line"/>
      <point x="157" y="226" type="line"/>
      <point x="29" y="226" type="line"/>
      <point x="29" y="243" type="line"/>
      <point x="162" y="243" type="line"/>
      <point x="201" y="414" type="line"/>
      <point x="29" y="414" type="line"/>
      <point x="29" y="431" type="line"/>
      <point x="207" y="431" type="line"/>
      <point x="268" y="698" type="line"/>
      <point x="287" y="698" type="line"/>
      <point x="226" y="431" type="line"/>
      <point x="415" y="431" type="line"/>
      <point x="477" y="698" type="line"/>
      <point x="496" y="698" type="line"/>
      <point x="433" y="431" type="line"/>
      <point x="576" y="431" type="line"/>
      <point x="576" y="414" type="line"/>
      <point x="430" y="414" type="line"/>
    </contour>
    <contour>
      <point x="371" y="243" type="line"/>
      <point x="410" y="414" type="line"/>
      <point x="220" y="414" type="line"/>
      <point x="180" y="243" type="line"/>
    </contour>
  </outline>
</glyph>
<glyph name="dollar" format="1">
  <advance width="523"/>
  <unicode hex="0024"/>
  <outline>
    <component base="S"/>
    <contour>
      <point x="265" y="-113" type="line"/>
      <point x="265" y="815" type="line"/>
      <point x="284" y="815" type="line"/>
      <point x="284" y="-113" type="line"/>
    </contour>
  </outline>
</glyph>
<glyph name="ampersand" format="1">
  <advance width="527"/>
  <unicode hex="0026"/>
  <outline>
    <contour>
      <point x="392" y="682" type="line"/>
      <point x="240" y="682" type="line" smooth="yes"/>
      <point x="154" y="682"/>
      <point x="111" y="627.45"/>
      <point x="111" y="554" type="curve" smooth="yes"/>
      <point x="111" y="463.007"/>
      <point x="218.519" y="403"/>
      <point x="274" y="403" type="curve" smooth="yes"/>
      <point x="381" y="403" type="line"/>
      <point x="381" y="505" type="line"/>
      <point x="397" y="505" type="line"/>
      <point x="397" y="403" type="line"/>
      <point x="496" y="403" type="line"/>
      <point x="487" y="383" type="line"/>
      <point x="397" y="383" type="line"/>
      <point x="397" y="136" type="line" smooth="yes"/>
      <point x="397" y="62.6667"/>
      <point x="426" y="28"/>
      <point x="491" y="7" type="curve"/>
      <point x="486" y="-9" type="line"/>
      <point x="420.667" y="9.66667"/>
      <point x="389" y="46.3333"/>
      <point x="381" y="105" type="curve"/>
      <point x="356.966" y="32.899"/>
      <point x="285.004" y="0"/>
      <point x="223" y="-4" type="curve" smooth="yes"/>
      <point x="150.449" y="-9.37412"/>
      <point x="29" y="4.3819"/>
      <point x="29" y="161" type="curve" smooth="yes"/>
      <point x="29" y="254" type="line" smooth="yes"/>
      <point x="29" y="317.766"/>
      <point x="47.71" y="403"/>
      <point x="183" y="403" type="curve" smooth="yes"/>
      <point x="205" y="403" type="line"/>
      <point x="132" y="434"/>
      <point x="92.3102" y="496.006"/>
      <point x="91" y="553" type="curve" smooth="yes"/>
      <point x="89.0142" y="640"/>
      <point x="148" y="702"/>
      <point x="244" y="702" type="curve" smooth="yes"/>
      <point x="402" y="702" type="line"/>
    </contour>
    <contour>
      <point x="381" y="383" type="line"/>
      <point x="181" y="383" type="line" smooth="yes"/>
      <point x="78.8333" y="383"/>
      <point x="48" y="330.633"/>
      <point x="48" y="255" type="curve" smooth="yes"/>
      <point x="48" y="159" type="line" smooth="yes"/>
      <point x="48" y="47"/>
      <point x="117.667" y="5"/>
      <point x="223" y="13" type="curve" smooth="yes"/>
      <point x="318.849" y="20.9874"/>
      <point x="381" y="90.9934"/>
      <point x="381" y="173" type="curve" smooth="yes"/>
    </contour>
  </outline>
</glyph>
<glyph name="quotesingle" format="1">
  <advance width="87"/>
  <unicode hex="0027"/>
  <outline>
    <contour>
      <point x="28" y="722" type="line"/>
      <point x="28" y="740.667"/>
      <point x="57" y="740.667"/>
      <point x="57" y="722" type="curve"/>
      <point x="50" y="587" type="line"/>
      <point x="34" y="587" type="line"/>
    </contour>
  </outline>
</glyph>
<glyph name="parenleft" format="1">
  <advance width="169"/>
  <unicode hex="0028"/>
  <outline>
    <contour>
      <point x="153" y="798" type="line"/>
      <point x="97.2139" y="758.153"/>
      <point x="60" y="729.212"/>
      <point x="60" y="635" type="curve" smooth="yes"/>
      <point x="60" y="313.75"/>
      <point x="60" y="155.25"/>
      <point x="60" y="65" type="curve" smooth="yes"/>
      <point x="60" y="-49.3518"/>
      <point x="126" y="-81"/>
      <point x="154" y="-101" type="curve"/>
      <point x="143" y="-119" type="line"/>
      <point x="70.0178" y="-70.3452"/>
      <point x="41" y="-30.3762"/>
      <point x="41" y="69" type="curve" smooth="yes"/>
      <point x="41" y="625" type="line" smooth="yes"/>
      <point x="41" y="722.526"/>
      <point x="70.6222" y="766.759"/>
      <point x="143" y="813" type="curve"/>
    </contour>
  </outline>
</glyph>
<glyph name="parenright" format="1">
  <advance width="171"/>
  <unicode hex="0029"/>
  <outline>
    <contour>
      <point x="26" y="813" type="line"/>
      <point x="99.9909" y="767.006"/>
      <point x="129" y="722.329"/>
      <point x="129" y="625" type="curve" smooth="yes"/>
      <point x="129" y="69" type="line" smooth="yes"/>
      <point x="129" y="-29.9409"/>
      <point x="100.802" y="-70.9132"/>
      <point x="26" y="-119" type="curve"/>
      <point x="15" y="-101" type="line"/>
      <point x="44.3484" y="-79.6557"/>
      <point x="110" y="-49.8309"/>
      <point x="110" y="65" type="curve" smooth="yes"/>
      <point x="110" y="155.25"/>
      <point x="110" y="313.75"/>
      <point x="110" y="635" type="curve" smooth="yes"/>
      <point x="110" y="729.341"/>
      <point x="72.0221" y="757.984"/>
      <point x="16" y="798" type="curve"/>
    </contour>
  </outline>
</glyph>
<glyph name="five" format="1">
  <advance width="439"/>
  <unicode hex="0035"/>
  <outline>
    <contour>
      <point x="80" y="411" type="line"/>
      <point x="174" y="413" type="line"/>
      <point x="336.95" y="413"/>
      <point x="411" y="318.383"/>
      <point x="411" y="198" type="curve" smooth="yes"/>
      <point x="411" y="75.3853"/>
      <point x="315.511" y="-12"/>
      <point x="201" y="-12" type="curve"/>
      <point x="106.549" y="-13.5556"/>
      <point x="27.549" y="43.5555"/>
      <point x="28" y="42" type="curve"/>
      <point x="36" y="59" type="line"/>
      <point x="34.4167" y="61.1667"/>
      <point x="113.083" y="4.83337"/>
      <point x="200" y="7" type="curve"/>
      <point x="295.6" y="7"/>
      <point x="392" y="76.85"/>
      <point x="392" y="199" type="curve" smooth="yes"/>
      <point x="392" y="296.833"/>
      <point x="332.717" y="393"/>
      <point x="175" y="393" type="curve" smooth="yes"/>
      <point x="59" y="393" type="line"/>
      <point x="91" y="698" type="line"/>
      <point x="356" y="698" type="line"/>
      <point x="356" y="678" type="line"/>
      <point x="108" y="678" type="line"/>
    </contour>
  </outline>
</glyph>
<glyph name="eight" format="1">
  <advance width="468"/>
  <unicode hex="0038"/>
  <outline>
    <contour>
      <point x="234" y="707" type="curve" smooth="yes"/>
      <point x="283.333" y="707"/>
      <point x="323.333" y="690.667"/>
      <point x="354" y="658" type="curve" smooth="yes"/>
      <point x="386" y="624.667"/>
      <point x="401" y="584"/>
      <point x="401" y="536" type="curve" smooth="yes"/>
      <point x="401" y="501.333"/>
      <point x="390" y="469.333"/>
      <point x="368" y="440" type="curve" smooth="yes"/>
      <point x="349.333" y="416"/>
      <point x="322.333" y="395.667"/>
      <point x="289" y="385" type="curve"/>
      <point x="334.333" y="373"/>
      <point x="370" y="348.667"/>
      <point x="398" y="310" type="curve" smooth="yes"/>
      <point x="424.667" y="272.667"/>
      <point x="439" y="232.333"/>
      <point x="439" y="191" type="curve" smooth="yes"/>
      <point x="439" y="133.667"/>
      <point x="418.667" y="84.6667"/>
      <point x="380" y="46" type="curve" smooth="yes"/>
      <point x="341.333" y="7.33333"/>
      <point x="292.667" y="-12"/>
      <point x="234" y="-12" type="curve" smooth="yes"/>
      <point x="174" y="-12"/>
      <point x="124.333" y="7.33333"/>
      <point x="85" y="46" type="curve" smooth="yes"/>
      <point x="46.3333" y="84.6667"/>
      <point x="26" y="133.667"/>
      <point x="26" y="191" type="curve" smooth="yes"/>
      <point x="26" y="233.667"/>
      <point x="40" y="275"/>
      <point x="68" y="311" type="curve"/>
      <point x="94.6667" y="348.333"/>
      <point x="136.333" y="373"/>
      <point x="175" y="385" type="curve"/>
      <point x="144.333" y="395.667"/>
      <point x="118.333" y="415.333"/>
      <point x="97" y="444" type="curve"/>
      <point x="78.3333" y="474.667"/>
      <point x="67" y="505.333"/>
      <point x="67" y="536" type="curve" smooth="yes"/>
      <point x="67" y="584"/>
      <point x="82.6667" y="624.667"/>
      <point x="114" y="658" type="curve" smooth="yes"/>
      <point x="146" y="690.667"/>
      <point x="186" y="707"/>
    </contour>
    <contour>
      <point x="234" y="391" type="curve" smooth="yes"/>
      <point x="283.333" y="391"/>
      <point x="327.333" y="415"/>
      <point x="354" y="451" type="curve" smooth="yes"/>
      <point x="372.667" y="476.333"/>
      <point x="382" y="505.667"/>
      <point x="382" y="539" type="curve" smooth="yes"/>
      <point x="382" y="620.567"/>
      <point x="315.567" y="687"/>
      <point x="234" y="687" type="curve" smooth="yes"/>
      <point x="151.767" y="687"/>
      <point x="85" y="620.567"/>
      <point x="85" y="539" type="curve" smooth="yes"/>
      <point x="85" y="505"/>
      <point x="95.6667" y="474.667"/>
      <point x="117" y="448" type="curve" smooth="yes"/>
      <point x="145" y="414.667"/>
      <point x="186" y="391"/>
    </contour>
    <contour>
      <point x="233" y="5" type="curve" smooth="yes"/>
      <point x="335.617" y="5"/>
      <point x="420" y="88.8333"/>
      <point x="420" y="189" type="curve" smooth="yes"/>
      <point x="420" y="231.667"/>
      <point x="406" y="268.333"/>
      <point x="382" y="299" type="curve" smooth="yes"/>
      <point x="348.667" y="344.333"/>
      <point x="294.333" y="373"/>
      <point x="233" y="373" type="curve" smooth="yes"/>
      <point x="174.333" y="373"/>
      <point x="121.667" y="346.333"/>
      <point x="87" y="305" type="curve" smooth="yes"/>
      <point x="61.6667" y="274.333"/>
      <point x="46" y="233"/>
      <point x="46" y="189" type="curve" smooth="yes"/>
      <point x="46" y="88.8333"/>
      <point x="129.033" y="5"/>
    </contour>
  </outline>
</glyph>
<glyph name="B" format="1">
  <advance width="502"/>
  <unicode hex="0042"/>
  <outline>
    <contour>
      <point x="259" y="698" type="line" smooth="yes"/>
      <point x="368.333" y="698"/>
      <point x="437" y="643.333"/>
      <point x="437" y="538" type="curve" smooth="yes"/>
      <point x="437" y="482.276"/>
      <point x="402.958" y="422.369"/>
      <point x="349" y="403" type="curve"/>
      <point x="349" y="399" type="line"/>
      <point x="433" y="368"/>
      <point x="473" y="297.995"/>
      <point x="473" y="208" type="curve" smooth="yes"/>
      <point x="473" y="83"/>
      <point x="401.945" y="0"/>
      <point x="269" y="0" type="curve" smooth="yes"/>
      <point x="41" y="0" type="line"/>
      <point x="41" y="698" type="line"/>
    </contour>
    <contour>
      <point x="297" y="411" type="line" smooth="yes"/>
      <point x="365.967" y="411"/>
      <point x="418" y="466"/>
      <point x="418" y="540" type="curve" smooth="yes"/>
      <point x="418" y="621.026"/>
      <point x="369.667" y="679"/>
      <point x="255" y="679" type="curve" smooth="yes"/>
      <point x="60" y="679" type="line"/>
      <point x="60" y="411" type="line"/>
    </contour>
    <contour>
      <point x="270" y="19" type="line" smooth="yes"/>
      <point x="390.633" y="19"/>
      <point x="454" y="93"/>
      <point x="454" y="208" type="curve" smooth="yes"/>
      <point x="454" y="316.94"/>
      <point x="386.667" y="393"/>
      <point x="272" y="393" type="curve" smooth="yes"/>
      <point x="60" y="393" type="line"/>
      <point x="60" y="19" type="line"/>
    </contour>
  </outline>
</glyph>
<glyph name="C" format="1">
  <advance width="420"/>
  <unicode hex="0043"/>
  <outline>
    <contour>
      <point x="362" y="658" type="line"/>
      <point x="318" y="681"/>
      <point x="272.333" y="689"/>
      <point x="231" y="689" type="curve" smooth="yes"/>
      <point x="115" y="689"/>
      <point x="53" y="630.171"/>
      <point x="53" y="512" type="curve" smooth="yes"/>
      <point x="53" y="185" type="line"/>
      <point x="50.9907" y="54.3936"/>
      <point x="131.241" y="8"/>
      <point x="237" y="8" type="curve" smooth="yes"/>
      <point x="276.65" y="8"/>
      <point x="333" y="18"/>
      <point x="389" y="41" type="curve"/>
      <point x="395" y="23" type="line"/>
      <point x="338.333" y="1"/>
      <point x="284.333" y="-10"/>
      <point x="233" y="-10" type="curve" smooth="yes"/>
      <point x="213" y="-10"/>
      <point x="164" y="-10.3333"/>
      <point x="116" y="15" type="curve" smooth="yes"/>
      <point x="65.3333" y="43"/>
      <point x="34" y="99"/>
      <point x="34" y="183" type="curve" smooth="yes"/>
      <point x="34" y="512" type="line" smooth="yes"/>
      <point x="34" y="658"/>
      <point x="127.917" y="708"/>
      <point x="228" y="708" type="curve" smooth="yes"/>
      <point x="282" y="708"/>
      <point x="329.333" y="697"/>
      <point x="370" y="675" type="curve"/>
    </contour>
  </outline>
</glyph>
<glyph name="P" format="1">
  <advance width="502"/>
  <unicode hex="0050"/>
  <outline>
    <contour>
      <point x="290" y="698" type="line" smooth="yes"/>
      <point x="416.407" y="698"/>
      <point x="474" y="621.022"/>
      <point x="474" y="492" type="curve" smooth="yes"/>
      <point x="474" y="353.437"/>
      <point x="417.433" y="280"/>
      <point x="283" y="280" type="curve" smooth="yes"/>
      <point x="224.118" y="280"/>
      <point x="139.118" y="280"/>
      <point x="60" y="280" type="curve"/>
      <point x="60" y="0" type="line"/>
      <point x="41" y="0" type="line"/>
      <point x="41" y="698" type="line"/>
    </contour>
    <contour>
      <point x="60" y="299" type="line"/>
      <point x="147.5" y="299"/>
      <point x="228.25" y="299"/>
      <point x="282" y="299" type="curve" smooth="yes"/>
      <point x="403.633" y="299"/>
      <point x="455" y="366.933"/>
      <point x="455" y="492" type="curve" smooth="yes"/>
      <point x="455" y="609.7"/>
      <point x="406.633" y="678"/>
      <point x="291" y="678" type="curve" smooth="yes"/>
      <point x="60" y="678" type="line"/>
    </contour>
  </outline>
</glyph>
<glyph name="R" format="1">
  <advance width="507"/>
  <unicode hex="0052"/>
  <outline>
    <contour>
      <point x="290" y="698" type="line" smooth="yes"/>
      <point x="416.407" y="698"/>
      <point x="474" y="621.022"/>
      <point x="474" y="492" type="curve" smooth="yes"/>
      <point x="474" y="374.667"/>
      <point x="432.667" y="303.667"/>
      <point x="338" y="285" type="curve"/>
      <point x="474" y="0" type="line"/>
      <point x="454" y="0" type="line"/>
      <point x="319" y="283" type="line"/>
      <point x="307" y="281.667"/>
      <point x="295" y="280"/>
      <point x="283" y="280" type="curve" smooth="yes"/>
      <point x="60" y="280" type="line"/>
      <point x="60" y="0" type="line"/>
      <point x="41" y="0" type="line"/>
      <point x="41" y="698" type="line"/>
    </contour>
    <contour>
      <point x="282" y="299" type="line" smooth="yes"/>
      <point x="403.633" y="299"/>
      <point x="455" y="366.933"/>
      <point x="455" y="492" type="curve" smooth="yes"/>
      <point x="455" y="609.7"/>
      <point x="406.633" y="678"/>
      <point x="291" y="678" type="curve" smooth="yes"/>
      <point x="60" y="678" type="line"/>
      <point x="60" y="299" type="line"/>
    </contour>
  </outline>
</glyph>
<glyph name="T" format="1">
  <advance width="408"/>
  <unicode hex="0054"/>
  <outline>
    <contour>
      <point x="210" y="678" type="line"/>
      <point x="210" y="0" type="line"/>
      <point x="192" y="0" type="line"/>
      <point x="192" y="678" type="line"/>
      <point x="2" y="678" type="line"/>
      <point x="2" y="698" type="line"/>
      <point x="404" y="698" type="line"/>
      <point x="404" y="678" type="line"/>
    </contour>
  </outline>
</glyph>
<glyph name="U" format="1">
  <advance width="496"/>
  <unicode hex="0055"/>
  <outline>
    <contour>
      <point x="456" y="185" type="line" smooth="yes"/>
      <point x="456" y="117.667"/>
      <point x="435.333" y="68"/>
      <point x="394" y="36" type="curve" smooth="yes"/>
      <point x="354" y="4.66667"/>
      <point x="305.333" y="-11"/>
      <point x="248" y="-11" type="curve" smooth="yes"/>
      <point x="190" y="-11"/>
      <point x="140.333" y="4.66667"/>
      <point x="99" y="36" type="curve" smooth="yes"/>
      <point x="58.3333" y="68"/>
      <point x="38" y="117.667"/>
      <point x="38" y="185" type="curve" smooth="yes"/>
      <point x="38" y="698" type="line"/>
      <point x="56" y="698" type="line"/>
      <point x="56" y="184" type="line" smooth="yes"/>
      <point x="56" y="125.333"/>
      <point x="74.6667" y="81.3333"/>
      <point x="112" y="52" type="curve" smooth="yes"/>
      <point x="149.333" y="22.6667"/>
      <point x="194.667" y="8"/>
      <point x="248" y="8" type="curve" smooth="yes"/>
      <point x="300" y="8"/>
      <point x="346" y="22"/>
      <point x="382" y="50" type="curve" smooth="yes"/>
      <point x="419.333" y="78"/>
      <point x="437" y="122.667"/>
      <point x="437" y="184" type="curve" smooth="yes"/>
      <point x="437" y="698" type="line"/>
      <point x="456" y="698" type="line"/>
    </contour>
  </outline>
</glyph>
<glyph name="Z" format="1">
  <advance width="539"/>
  <unicode hex="005A"/>
  <outline>
    <contour>
      <point x="506" y="698" type="line"/>
      <point x="506" y="679" type="line"/>
      <point x="50" y="19" type="line"/>
      <point x="512" y="19" type="line"/>
      <point x="512" y="0" type="line"/>
      <point x="27" y="0" type="line"/>
      <point x="27" y="19" type="line"/>
      <point x="482" y="679" type="line"/>
      <point x="40" y="679" type="line"/>
      <point x="39" y="698" type="line"/>
    </contour>
  </outline>
</glyph>
<glyph name="asciicircum" format="1">
  <advance width="266"/>
  <unicode hex="005E"/>
  <outline>
    <contour>
      <point x="254" y="779" type="line"/>
      <point x="239" y="763" type="line"/>
      <point x="134" y="867" type="line"/>
      <point x="26" y="763" type="line"/>
      <point x="11" y="778" type="line"/>
      <point x="134" y="897" type="line"/>
    </contour>
  </outline>
</glyph>
<glyph name="a" format="1">
  <advance width="444"/>
  <unicode hex="0061"/>
  <outline>
    <contour>
      <point x="390" y="345" type="curve"/>
      <point x="390" y="391.667"/>
      <point x="371" y="431.667"/>
      <point x="335" y="457" type="curve" smooth="yes"/>
      <point x="305.667" y="477"/>
      <point x="268" y="488"/>
      <point x="200" y="488" type="curve"/>
      <point x="201" y="507" type="line"/>
      <point x="266.333" y="507"/>
      <point x="314.219" y="494.733"/>
      <point x="348" y="470" type="curve" smooth="yes"/>
      <point x="388.895" y="440.059"/>
      <point x="409" y="395"/>
      <point x="409" y="335" type="curve" smooth="yes"/>
      <point x="409" y="0" type="line"/>
      <point x="412.216" y="0.2222"/>
      <point x="266.883" y="-10"/>
      <point x="229" y="-10" type="curve" smooth="yes"/>
      <point x="84.9001" y="-10"/>
      <point x="25" y="50.2333"/>
      <point x="25" y="168" type="curve" smooth="yes"/>
      <point x="25" y="251" type="line" smooth="yes"/>
      <point x="25" y="314.792"/>
      <point x="51.4113" y="403"/>
      <point x="186" y="403" type="curve" smooth="yes"/>
      <point x="259.333" y="403"/>
      <point x="330" y="374.333"/>
    </contour>
    <contour>
      <point x="390" y="322" type="line"/>
      <point x="318.724" y="358.656"/>
      <point x="258.538" y="384"/>
      <point x="185" y="384" type="curve" smooth="yes"/>
      <point x="82.2333" y="384"/>
      <point x="43" y="323.033"/>
      <point x="43" y="249" type="curve" smooth="yes"/>
      <point x="43" y="162" type="line" smooth="yes"/>
      <point x="43" y="89.5157"/>
      <point x="72.9707" y="8"/>
      <point x="229" y="8" type="curve" smooth="yes"/>
      <point x="272.991" y="8"/>
      <point x="392.438" y="18.2222"/>
      <point x="390" y="18" type="curve"/>
    </contour>
  </outline>
</glyph>
<glyph name="c" format="1">
  <advance width="377"/>
  <unicode hex="0063"/>
  <outline>
    <contour>
      <point x="340" y="457" type="line"/>
      <point x="282.667" y="486.333"/>
      <point x="222.667" y="495.667"/>
      <point x="172" y="485" type="curve" smooth="yes"/>
      <point x="130.667" y="475.667"/>
      <point x="95.6667" y="453"/>
      <point x="73" y="417" type="curve" smooth="yes"/>
      <point x="55.6667" y="389"/>
      <point x="47" y="355.667"/>
      <point x="47" y="313" type="curve" smooth="yes"/>
      <point x="47" y="175" type="line" smooth="yes"/>
      <point x="47" y="99"/>
      <point x="70.3333" y="45"/>
      <point x="141" y="21" type="curve" smooth="yes"/>
      <point x="228.66" y="-9.22222"/>
      <point x="346.438" y="25.8889"/>
      <point x="345" y="25" type="curve"/>
      <point x="349" y="5" type="line"/>
      <point x="282.333" y="-12.3333"/>
      <point x="200" y="-17.6667"/>
      <point x="140" y="1" type="curve"/>
      <point x="72" y="23.6667"/>
      <point x="28" y="75.6667"/>
      <point x="28" y="173" type="curve" smooth="yes"/>
      <point x="28" y="318" type="line"/>
      <point x="30.6667" y="362"/>
      <point x="37.6667" y="394"/>
      <point x="55" y="426" type="curve"/>
      <point x="81.6667" y="470"/>
      <point x="119.667" y="494.667"/>
      <point x="165" y="504" type="curve" smooth="yes"/>
      <point x="223.667" y="516"/>
      <point x="289.667" y="504"/>
      <point x="347" y="476" type="curve"/>
    </contour>
  </outline>
</glyph>
<glyph name="f" format="1">
  <advance width="246"/>
  <unicode hex="0066"/>
  <outline>
    <contour>
      <point x="219" y="687" type="line"/>
      <point x="209.667" y="689.667"/>
      <point x="202.333" y="691"/>
      <point x="193" y="691" type="curve"/>
      <point x="131.127" y="692.996"/>
      <point x="59" y="662.437"/>
      <point x="59" y="548" type="curve" smooth="yes"/>
      <point x="59" y="498" type="line"/>
      <point x="209" y="498" type="line"/>
      <point x="202" y="482" type="line"/>
      <point x="59" y="482" type="line"/>
      <point x="59" y="0" type="line"/>
      <point x="39" y="0" type="line"/>
      <point x="39" y="548" type="line" smooth="yes"/>
      <point x="39" y="670.417"/>
      <point x="117.583" y="708"/>
      <point x="187" y="708" type="curve" smooth="yes"/>
      <point x="199" y="708"/>
      <point x="212.333" y="707.667"/>
      <point x="223" y="705" type="curve"/>
    </contour>
  </outline>
</glyph>
<glyph name="j" format="1">
  <advance width="181"/>
  <unicode hex="006A"/>
  <outline>
    <contour>
      <point x="131" y="-68" type="line" smooth="yes"/>
      <point x="131" y="-116"/>
      <point x="120" y="-149.667"/>
      <point x="96" y="-175" type="curve"/>
      <point x="78.6667" y="-191"/>
      <point x="55.6667" y="-203.667"/>
      <point x="25" y="-213" type="curve"/>
      <point x="19" y="-196" type="line"/>
      <point x="49.6667" y="-184"/>
      <point x="59.3333" y="-178.333"/>
      <point x="82" y="-161" type="curve"/>
      <point x="103.333" y="-142.333"/>
      <point x="114" y="-112.333"/>
      <point x="114" y="-67" type="curve" smooth="yes"/>
      <point x="114" y="481" type="line"/>
      <point x="29" y="481" type="line"/>
      <point x="29" y="499" type="line"/>
      <point x="131" y="499" type="line"/>
    </contour>
    <contour>
      <point x="139" y="691" type="curve" smooth="yes"/>
      <point x="139" y="681.667"/>
      <point x="133.667" y="674"/>
      <point x="123" y="674" type="curve" smooth="yes"/>
      <point x="113.667" y="674"/>
      <point x="106" y="681.667"/>
      <point x="106" y="691" type="curve" smooth="yes"/>
      <point x="106" y="701.667"/>
      <point x="113.667" y="707"/>
      <point x="123" y="707" type="curve" smooth="yes"/>
      <point x="133.667" y="707"/>
      <point x="139" y="701.667"/>
    </contour>
  </outline>
</glyph>
<glyph name="l" format="1">
  <advance width="104"/>
  <unicode hex="006C"/>
  <outline>
    <contour>
      <point x="41" y="0" type="line"/>
      <point x="41" y="698" type="line"/>
      <point x="61" y="698" type="line"/>
      <point x="61" y="0" type="line"/>
    </contour>
  </outline>
</glyph>
<glyph name="m" format="1">
  <advance width="715"/>
  <unicode hex="006D"/>
  <outline>
    <contour>
      <point x="662" y="344" type="line" smooth="yes"/>
      <point x="662" y="456.967"/>
      <point x="609.988" y="500"/>
      <point x="502" y="492" type="curve"/>
      <point x="446" y="486.667"/>
      <point x="391" y="463.667"/>
      <point x="351" y="441" type="curve"/>
      <point x="361.667" y="417"/>
      <point x="370" y="385.667"/>
      <point x="370" y="343" type="curve" smooth="yes"/>
      <point x="370" y="0" type="line"/>
      <point x="350" y="0" type="line"/>
      <point x="350" y="344" type="line" smooth="yes"/>
      <point x="350" y="456.941"/>
      <point x="297.42" y="500.032"/>
      <point x="191" y="492" type="curve" smooth="yes"/>
      <point x="131" y="486.667"/>
      <point x="94.3333" y="469.667"/>
      <point x="57" y="451" type="curve"/>
      <point x="57" y="0" type="line"/>
      <point x="38" y="0" type="line"/>
      <point x="38" y="498" type="line"/>
      <point x="57" y="498" type="line"/>
      <point x="57" y="470" type="line"/>
      <point x="87.6667" y="486"/>
      <point x="135.333" y="503"/>
      <point x="186" y="507" type="curve" smooth="yes"/>
      <point x="243.698" y="512.129"/>
      <point x="307.802" y="507.349"/>
      <point x="342" y="454" type="curve"/>
      <point x="382.044" y="481.616"/>
      <point x="449.462" y="504.376"/>
      <point x="498" y="507" type="curve"/>
      <point x="583.007" y="514.969"/>
      <point x="679" y="498.729"/>
      <point x="679" y="343" type="curve" smooth="yes"/>
      <point x="679" y="0" type="line"/>
      <point x="662" y="0" type="line"/>
    </contour>
  </outline>
</glyph>
<glyph name="n" format="1">
  <advance width="442"/>
  <unicode hex="006E"/>
  <outline>
    <contour>
      <point x="388" y="345" type="line" smooth="yes"/>
      <point x="388" y="459.121"/>
      <point x="323.905" y="498.995"/>
      <point x="216" y="493" type="curve" smooth="yes"/>
      <point x="158.667" y="490.333"/>
      <point x="94.3333" y="470.667"/>
      <point x="57" y="452" type="curve"/>
      <point x="57" y="0" type="line"/>
      <point x="38" y="0" type="line"/>
      <point x="38" y="499" type="line"/>
      <point x="57" y="499" type="line"/>
      <point x="57" y="471" type="line"/>
      <point x="100.101" y="490.755"/>
      <point x="155.76" y="505.577"/>
      <point x="203" y="508" type="curve" smooth="yes"/>
      <point x="289.517" y="513.243"/>
      <point x="406" y="501.61"/>
      <point x="406" y="344" type="curve" smooth="yes"/>
      <point x="406" y="0" type="line"/>
      <point x="388" y="0" type="line"/>
    </contour>
  </outline>
</glyph>
<glyph name="p" format="1">
  <advance width="439"/>
  <unicode hex="0070"/>
  <outline>
    <contour>
      <point x="408" y="175" type="line" smooth="yes"/>
      <point x="408" y="53.6667"/>
      <point x="345" y="-12"/>
      <point x="234" y="-12" type="curve" smooth="yes"/>
      <point x="165.25" y="-12"/>
      <point x="82.7558" y="22.5903"/>
      <point x="59" y="80" type="curve"/>
      <point x="59" y="-212" type="line"/>
      <point x="39" y="-206" type="line"/>
      <point x="39" y="498" type="line"/>
      <point x="59" y="498" type="line"/>
      <point x="59" y="446" type="line"/>
      <point x="111.766" y="478.832"/>
      <point x="173.4" y="506"/>
      <point x="234" y="508" type="curve" smooth="yes"/>
      <point x="342.016" y="511.542"/>
      <point x="408" y="450.667"/>
      <point x="408" y="344" type="curve" smooth="yes"/>
    </contour>
    <contour>
      <point x="391" y="344" type="line" smooth="yes"/>
      <point x="391" y="448.071"/>
      <point x="324.013" y="489.355"/>
      <point x="245.81" y="492.16" type="curve" smooth="yes"/>
      <point x="187" y="493.844"/>
      <point x="107" y="462"/>
      <point x="59" y="426" type="curve"/>
      <point x="59" y="147" type="line"/>
      <point x="56.25" y="50.5833"/>
      <point x="159" y="-0.913673"/>
      <point x="248" y="4" type="curve" smooth="yes"/>
      <point x="335.006" y="8.888"/>
      <point x="391" y="66.6667"/>
      <point x="391" y="168" type="curve" smooth="yes"/>
    </contour>
  </outline>
</glyph>
<glyph name="q" format="1">
  <advance width="436"/>
  <unicode hex="0071"/>
  <outline>
    <contour>
      <point x="378" y="81" type="line"/>
      <point x="341.727" y="14.5002"/>
      <point x="264.535" y="-11"/>
      <point x="203" y="-11" type="curve" smooth="yes"/>
      <point x="92.3333" y="-11"/>
      <point x="29" y="54.6667"/>
      <point x="29" y="176" type="curve" smooth="yes"/>
      <point x="29" y="345" type="line" smooth="yes"/>
      <point x="29" y="455.873"/>
      <point x="94.6667" y="514.333"/>
      <point x="204" y="509" type="curve" smooth="yes"/>
      <point x="251.223" y="507.032"/>
      <point x="317.148" y="491"/>
      <point x="378" y="450" type="curve"/>
      <point x="378" y="498" type="line"/>
      <point x="397" y="498" type="line"/>
      <point x="397" y="-211" type="line"/>
      <point x="378" y="-207" type="line"/>
    </contour>
    <contour>
      <point x="378" y="427" type="line"/>
      <point x="346.681" y="458.319"/>
      <point x="257.735" y="494.143"/>
      <point x="188" y="492" type="curve" smooth="yes"/>
      <point x="117" y="489.971"/>
      <point x="49" y="458.319"/>
      <point x="49" y="348" type="curve" smooth="yes"/>
      <point x="49" y="169" type="line" smooth="yes"/>
      <point x="49" y="65"/>
      <point x="109.17" y="5.98542"/>
      <point x="201" y="6" type="curve" smooth="yes"/>
      <point x="281.1" y="6.0127"/>
      <point x="378" y="49.9476"/>
      <point x="378" y="148" type="curve" smooth="yes"/>
    </contour>
  </outline>
</glyph>
<glyph name="r" format="1">
  <advance width="329"/>
  <unicode hex="0072"/>
  <outline>
    <contour>
      <point x="308" y="490" type="line"/>
      <point x="293.333" y="492.667"/>
      <point x="276.667" y="494"/>
      <point x="262" y="494" type="curve" smooth="yes"/>
      <point x="212.244" y="494"/>
      <point x="155.361" y="476.162"/>
      <point x="57" y="432" type="curve"/>
      <point x="57" y="0" type="line"/>
      <point x="38" y="0" type="line"/>
      <point x="38" y="499" type="line"/>
      <point x="57" y="499" type="line"/>
      <point x="57" y="453" type="line"/>
      <point x="139.667" y="487.667"/>
      <point x="206.667" y="513"/>
      <point x="264" y="513" type="curve" smooth="yes"/>
      <point x="280" y="513"/>
      <point x="295.667" y="510"/>
      <point x="309" y="506" type="curve"/>
    </contour>
  </outline>
</glyph>
<glyph name="s" format="1">
  <advance width="405"/>
  <unicode hex="0073"/>
  <outline>
    <contour>
      <point x="323" y="460" type="line"/>
      <point x="322.917" y="458.667"/>
      <point x="277.09" y="492"/>
      <point x="208" y="492" type="curve" smooth="yes"/>
      <point x="146" y="492"/>
      <point x="73" y="466"/>
      <point x="69" y="394" type="curve" smooth="yes"/>
      <point x="67.0394" y="359.363"/>
      <point x="79.3773" y="333.591"/>
      <point x="111" y="313" type="curve" smooth="yes"/>
      <point x="136.723" y="296.25"/>
      <point x="173" y="283.333"/>
      <point x="221" y="266" type="curve" smooth="yes"/>
      <point x="292" y="240"/>
      <point x="377" y="207"/>
      <point x="377" y="119" type="curve" smooth="yes"/>
      <point x="377" y="83"/>
      <point x="362" y="52"/>
      <point x="335" y="28" type="curve" smooth="yes"/>
      <point x="306.598" y="3"/>
      <point x="263.333" y="-15"/>
      <point x="202" y="-15" type="curve" smooth="yes"/>
      <point x="162" y="-15"/>
      <point x="129.38" y="-8.61674"/>
      <point x="103" y="4" type="curve" smooth="yes"/>
      <point x="68.0346" y="20.7226"/>
      <point x="43.6667" y="44"/>
      <point x="25" y="68" type="curve"/>
      <point x="38" y="81" type="line"/>
      <point x="80" y="25"/>
      <point x="133" y="2"/>
      <point x="202" y="2" type="curve" smooth="yes"/>
      <point x="273" y="2"/>
      <point x="354" y="33"/>
      <point x="358" y="114" type="curve" smooth="yes"/>
      <point x="360.667" y="143.333"/>
      <point x="352" y="168.667"/>
      <point x="324" y="194" type="curve" smooth="yes"/>
      <point x="302.667" y="212.667"/>
      <point x="267" y="230.333"/>
      <point x="215" y="249" type="curve" smooth="yes"/>
      <point x="168.333" y="265"/>
      <point x="128.055" y="279.092"/>
      <point x="98" y="300" type="curve" smooth="yes"/>
      <point x="68" y="321"/>
      <point x="50" y="349"/>
      <point x="50" y="389" type="curve" smooth="yes"/>
      <point x="50" y="430"/>
      <point x="69" y="461"/>
      <point x="103" y="483" type="curve" smooth="yes"/>
      <point x="133.667" y="501.667"/>
      <point x="173.333" y="510"/>
      <point x="208" y="510" type="curve" smooth="yes"/>
      <point x="282.029" y="510"/>
      <point x="332.963" y="475.037"/>
      <point x="334" y="474" type="curve"/>
    </contour>
  </outline>
</glyph>
<glyph name="bar" format="1">
  <advance width="103"/>
  <unicode hex="007C"/>
  <outline>
    <contour>
      <point x="42" y="-113" type="line"/>
      <point x="42" y="815" type="line"/>
      <point x="60" y="815" type="line"/>
      <point x="60" y="-113" type="line"/>
    </contour>
  </outline>
</glyph>
<glyph name="overscore" format="1">
  <advance width="266"/>
  <unicode hex="00AF"/>
  <outline>
    <contour>
      <point x="243" y="675" type="line"/>
      <point x="243" y="656" type="line"/>
      <point x="23" y="656" type="line"/>
      <point x="23" y="675" type="line"/>
    </contour>
  </outline>
</glyph>
<glyph name="degree" format="1">
  <advance width="347"/>
  <unicode hex="00B0"/>
  <outline>
    <contour>
      <point x="318" y="563" type="curve" smooth="yes"/>
      <point x="318" y="482.983"/>
      <point x="253.017" y="418"/>
      <point x="173" y="418" type="curve" smooth="yes"/>
      <point x="92.3167" y="418"/>
      <point x="27" y="482.983"/>
      <point x="27" y="563" type="curve" smooth="yes"/>
      <point x="27" y="643.017"/>
      <point x="92.3167" y="708"/>
      <point x="173" y="708" type="curve" smooth="yes"/>
      <point x="253.017" y="708"/>
      <point x="318" y="643.017"/>
    </contour>
    <contour>
      <point x="173" y="689" type="curve" smooth="yes"/>
      <point x="103.4" y="689"/>
      <point x="47" y="632.6"/>
      <point x="47" y="563" type="curve" smooth="yes"/>
      <point x="47" y="494.967"/>
      <point x="103.4" y="438"/>
      <point x="173" y="438" type="curve" smooth="yes"/>
      <point x="241.933" y="438"/>
      <point x="298" y="494.967"/>
      <point x="298" y="563" type="curve" smooth="yes"/>
      <point x="298" y="632.6"/>
      <point x="241.933" y="689"/>
    </contour>
  </outline>
</glyph>
<glyph name="plusminus" format="1">
  <advance width="380"/>
  <unicode hex="00B1"/>
  <outline>
    <contour>
      <point x="30" y="396" type="line"/>
      <point x="30" y="414" type="line"/>
      <point x="180" y="414" type="line"/>
      <point x="180" y="563" type="line"/>
      <point x="199" y="563" type="line"/>
      <point x="199" y="414" type="line"/>
      <point x="349" y="414" type="line"/>
      <point x="349" y="396" type="line"/>
      <point x="199" y="396" type="line"/>
      <point x="199" y="246" type="line"/>
      <point x="348" y="246" type="line"/>
      <point x="348" y="226" type="line"/>
      <point x="29" y="226" type="line"/>
      <point x="29" y="246" type="line"/>
      <point x="180" y="246" type="line"/>
      <point x="180" y="396" type="line"/>
    </contour>
  </outline>
</glyph>
<glyph name="mu" format="1">
  <advance width="460"/>
  <unicode hex="00B5"/>
  <outline>
    <contour>
      <point x="408" y="70" type="line" smooth="yes"/>
      <point x="408" y="41.5089"/>
      <point x="411.38" y="26.5513"/>
      <point x="430" y="10" type="curve"/>
      <point x="419" y="-2" type="line"/>
      <point x="420.25" y="-1.9167"/>
      <point x="387.75" y="17.6666"/>
      <point x="389" y="62" type="curve"/>
      <point x="366.758" y="19.5389"/>
      <point x="309" y="-14"/>
      <point x="238" y="-14" type="curve" smooth="yes"/>
      <point x="158.428" y="-14"/>
      <point x="92" y="12"/>
      <point x="57" y="80" type="curve"/>
      <point x="57" y="-210" type="line"/>
      <point x="39" y="-205" type="line"/>
      <point x="39" y="499" type="line"/>
      <point x="57" y="499" type="line"/>
      <point x="57" y="151.484" type="line" smooth="yes"/>
      <point x="57" y="88.1042"/>
      <point x="109.381" y="2"/>
      <point x="235" y="2" type="curve" smooth="yes"/>
      <point x="318" y="2"/>
      <point x="389" y="48"/>
      <point x="389" y="131" type="curve" smooth="yes"/>
      <point x="389" y="505" type="line"/>
      <point x="408" y="508" type="line"/>
    </contour>
  </outline>
</glyph>
<glyph name="paragraph" format="1">
  <advance width="603"/>
  <unicode hex="00B6"/>
  <outline>
    <contour>
      <point x="219" y="282" type="line" smooth="yes"/>
      <point x="85.6147" y="282"/>
      <point x="29" y="356.108"/>
      <point x="29" y="493" type="curve" smooth="yes"/>
      <point x="29" y="623.693"/>
      <point x="86.6407" y="700"/>
      <point x="212" y="700" type="curve" smooth="yes"/>
      <point x="560" y="700" type="line"/>
      <point x="560" y="1" type="line"/>
      <point x="540" y="1" type="line"/>
      <point x="540" y="680" type="line"/>
      <point x="461" y="680" type="line"/>
      <point x="461" y="1" type="line"/>
      <point x="442" y="1" type="line"/>
      <point x="442" y="282" type="line"/>
    </contour>
    <contour>
      <point x="211" y="680" type="line" smooth="yes"/>
      <point x="96.2667" y="680"/>
      <point x="47" y="612.267"/>
      <point x="47" y="493" type="curve" smooth="yes"/>
      <point x="47" y="370.183"/>
      <point x="98.7" y="300"/>
      <point x="221" y="300" type="curve" smooth="yes"/>
      <point x="442" y="300" type="line"/>
      <point x="442" y="680" type="line"/>
    </contour>
  </outline>
</glyph>
<glyph name="cedilla" format="1">
  <advance width="266"/>
  <unicode hex="00B8"/>
  <outline>
    <contour>
      <point x="150" y="0" type="line"/>
      <point x="123" y="-46" type="line"/>
      <point x="145.667" y="-46"/>
      <point x="149" y="-46"/>
      <point x="154" y="-46" type="curve" smooth="yes"/>
      <point x="213.991" y="-46"/>
      <point x="248" y="-85.9"/>
      <point x="248" y="-136" type="curve" smooth="yes"/>
      <point x="248" y="-190.009"/>
      <point x="210.241" y="-222.735"/>
      <point x="158" y="-226" type="curve"/>
      <point x="113.03" y="-226"/>
      <point x="91.4839" y="-221.114"/>
      <point x="57" y="-213" type="curve"/>
      <point x="58.9804" y="-205.078"/>
      <point x="60.8431" y="-204.627"/>
      <point x="63" y="-196" type="curve"/>
      <point x="62.0833" y="-195.917"/>
      <point x="107.667" y="-210.083"/>
      <point x="157" y="-207" type="curve"/>
      <point x="173.981" y="-205.113"/>
      <point x="229" y="-198.793"/>
      <point x="229" y="-136" type="curve" smooth="yes"/>
      <point x="229" y="-96"/>
      <point x="199.667" y="-67"/>
      <point x="157" y="-67" type="curve" smooth="yes"/>
      <point x="141" y="-67"/>
      <point x="121.333" y="-67"/>
      <point x="100" y="-67" type="curve"/>
      <point x="100" y="-46" type="line"/>
      <point x="129" y="0" type="line"/>
    </contour>
  </outline>
</glyph>
<glyph name="Thorn" format="1">
  <advance width="397"/>
  <unicode hex="00DE"/>
  <outline>
    <contour>
      <point x="368" y="289" type="line" smooth="yes"/>
      <point x="368" y="191.667"/>
      <point x="323.667" y="140.667"/>
      <point x="257" y="118" type="curve"/>
      <point x="201" y="100.667"/>
      <point x="124" y="101.667"/>
      <point x="60" y="119" type="curve"/>
      <point x="60" y="0" type="line"/>
      <point x="41" y="0" type="line"/>
      <point x="41" y="698" type="line"/>
      <point x="60" y="698" type="line"/>
      <point x="60" y="597" type="line"/>
      <point x="114.667" y="621"/>
      <point x="177.667" y="630.667"/>
      <point x="231" y="620" type="curve" smooth="yes"/>
      <point x="321" y="601"/>
      <point x="368" y="522"/>
      <point x="368" y="435" type="curve" smooth="yes"/>
    </contour>
    <contour>
      <point x="224" y="602" type="curve" smooth="yes"/>
      <point x="175.26" y="611.748"/>
      <point x="115.425" y="603.692"/>
      <point x="60" y="574" type="curve"/>
      <point x="60" y="137" type="line"/>
      <point x="85.5526" y="131.322"/>
      <point x="177.69" y="112.472"/>
      <point x="254" y="137" type="curve" smooth="yes"/>
      <point x="326" y="161"/>
      <point x="349" y="215"/>
      <point x="349" y="291" type="curve" smooth="yes"/>
      <point x="349" y="429" type="line" smooth="yes"/>
      <point x="349" y="513"/>
      <point x="311" y="582"/>
    </contour>
  </outline>
</glyph>
<glyph name="germandbls" format="1">
  <advance width="462"/>
  <unicode hex="00DF"/>
  <outline>
    <contour>
      <point x="59" y="0" type="line"/>
      <point x="52.3333" y="0"/>
      <point x="45.6667" y="0"/>
      <point x="39" y="0" type="curve"/>
      <point x="39" y="539" type="line" smooth="yes"/>
      <point x="39" y="663.017"/>
      <point x="104" y="698"/>
      <point x="165" y="698" type="curve" smooth="yes"/>
      <point x="238" y="698"/>
      <point x="284" y="636.717"/>
      <point x="284" y="583" type="curve" smooth="yes"/>
      <point x="284" y="540.333"/>
      <point x="262" y="498.667"/>
      <point x="214" y="492" type="curve"/>
      <point x="209.583" y="492"/>
      <point x="206.667" y="492"/>
      <point x="203" y="492" type="curve"/>
      <point x="193.667" y="474.667"/>
      <point x="190.667" y="457.667"/>
      <point x="192" y="443" type="curve" smooth="yes"/>
      <point x="196.068" y="375.882"/>
      <point x="282.746" y="336.49"/>
      <point x="364" y="274" type="curve" smooth="yes"/>
      <point x="411.468" y="237.494"/>
      <point x="437" y="195"/>
      <point x="437" y="135" type="curve" smooth="yes"/>
      <point x="437" y="59"/>
      <point x="381.926" y="-11"/>
      <point x="282" y="-11" type="curve" smooth="yes"/>
      <point x="181.324" y="-11"/>
      <point x="132.417" y="38.3334"/>
      <point x="133" y="36" type="curve"/>
      <point x="143" y="50" type="line"/>
      <point x="142.583" y="51.9167"/>
      <point x="192.978" y="8"/>
      <point x="275" y="8" type="curve" smooth="yes"/>
      <point x="392.106" y="8"/>
      <point x="417" y="86.8119"/>
      <point x="417" y="137" type="curve" smooth="yes"/>
      <point x="417" y="219.799"/>
      <point x="361.435" y="254.39"/>
      <point x="304" y="294" type="curve" smooth="yes"/>
      <point x="240.215" y="339.181"/>
      <point x="174" y="379.45"/>
      <point x="174" y="446" type="curve" smooth="yes"/>
      <point x="174" y="463.333"/>
      <point x="178.333" y="483.667"/>
      <point x="189" y="505" type="curve"/>
      <point x="243.667" y="505"/>
      <point x="267.549" y="542.008"/>
      <point x="266" y="582" type="curve" smooth="yes"/>
      <point x="264.236" y="627.545"/>
      <point x="229.517" y="679"/>
      <point x="166" y="679" type="curve" smooth="yes"/>
      <point x="94.6667" y="679"/>
      <point x="59" y="633"/>
      <point x="59" y="539" type="curve" smooth="yes"/>
    </contour>
  </outline>
</glyph>
<glyph name="ae" format="1">
  <advance width="784"/>
  <unicode hex="00E6"/>
  <outline>
    <contour>
      <point x="414" y="132" type="line" smooth="yes"/>
      <point x="414" y="41.1515"/>
      <point x="479.026" y="7"/>
      <point x="567" y="7" type="curve" smooth="yes"/>
      <point x="621.667" y="7"/>
      <point x="663.667" y="20"/>
      <point x="721" y="52" type="curve"/>
      <point x="730" y="35" type="line"/>
      <point x="679.333" y="4.33333"/>
      <point x="625" y="-12"/>
      <point x="569" y="-12" type="curve" smooth="yes"/>
      <point x="487.667" y="-12"/>
      <point x="433" y="13.3333"/>
      <point x="409" y="64" type="curve"/>
      <point x="409" y="0" type="line"/>
      <point x="410.699" y="0.1389"/>
      <point x="267.365" y="-10.1389"/>
      <point x="229" y="-10" type="curve"/>
      <point x="84.9" y="-10"/>
      <point x="25" y="50.2333"/>
      <point x="25" y="168" type="curve" smooth="yes"/>
      <point x="25" y="251" type="line" smooth="yes"/>
      <point x="25" y="314.792"/>
      <point x="51.4113" y="403"/>
      <point x="186" y="403" type="curve" smooth="yes"/>
      <point x="259.333" y="403"/>
      <point x="330" y="374.333"/>
      <point x="390" y="345" type="curve"/>
      <point x="390" y="425.933"/>
      <point x="344.217" y="488"/>
      <point x="200" y="488" type="curve"/>
      <point x="200" y="494.667"/>
      <point x="201" y="501.667"/>
      <point x="201" y="507" type="curve"/>
      <point x="316.399" y="507"/>
      <point x="381.939" y="465.226"/>
      <point x="402" y="391" type="curve"/>
      <point x="422" y="465.667"/>
      <point x="489.667" y="508"/>
      <point x="579" y="508" type="curve" smooth="yes"/>
      <point x="689.133" y="508"/>
      <point x="755" y="448.283"/>
      <point x="755" y="341" type="curve" smooth="yes"/>
      <point x="755" y="246" type="line"/>
      <point x="414" y="229" type="line"/>
    </contour>
    <contour>
      <point x="390" y="322" type="line"/>
      <point x="318.724" y="358.656"/>
      <point x="258.538" y="383"/>
      <point x="185" y="383" type="curve" smooth="yes"/>
      <point x="82.2333" y="383"/>
      <point x="43" y="323.033"/>
      <point x="43" y="249" type="curve" smooth="yes"/>
      <point x="43" y="162" type="line" smooth="yes"/>
      <point x="43" y="89.5157"/>
      <point x="72.982" y="5.31004"/>
      <point x="229" y="8" type="curve"/>
      <point x="272.993" y="7.7778"/>
      <point x="392.438" y="18.2222"/>
      <point x="390" y="18" type="curve"/>
    </contour>
    <contour>
      <point x="735" y="342" type="line" smooth="yes"/>
      <point x="735" y="462.078"/>
      <point x="646.641" y="491"/>
      <point x="576" y="491" type="curve" smooth="yes"/>
      <point x="508.519" y="491"/>
      <point x="414" y="462.693"/>
      <point x="414" y="332" type="curve" smooth="yes"/>
      <point x="414" y="248" type="line"/>
      <point x="735" y="264" type="line"/>
    </contour>
  </outline>
</glyph>
<glyph name="thorn" format="1">
  <advance width="443"/>
  <unicode hex="00FE"/>
  <outline>
    <contour>
      <point x="61" y="399" type="line"/>
      <point x="95.6667" y="472.333"/>
      <point x="158" y="509"/>
      <point x="230" y="509" type="curve" smooth="yes"/>
      <point x="343.85" y="509"/>
      <point x="419" y="426.583"/>
      <point x="419" y="309" type="curve" smooth="yes"/>
      <point x="419" y="205.083"/>
      <point x="341.933" y="116"/>
      <point x="231" y="116" type="curve" smooth="yes"/>
      <point x="155" y="116"/>
      <point x="90.3333" y="155.333"/>
      <point x="61" y="234" type="curve"/>
      <point x="61" y="0" type="line"/>
      <point x="41" y="0" type="line"/>
      <point x="41" y="698" type="line"/>
      <point x="61" y="698" type="line"/>
    </contour>
    <contour>
      <point x="232" y="493" type="curve" smooth="yes"/>
      <point x="138" y="493"/>
      <point x="63" y="417"/>
      <point x="63" y="319" type="curve" smooth="yes"/>
      <point x="63" y="226.5"/>
      <point x="115.967" y="133"/>
      <point x="230" y="133" type="curve" smooth="yes"/>
      <point x="329.6" y="133"/>
      <point x="401" y="212.567"/>
      <point x="401" y="315" type="curve" smooth="yes"/>
      <point x="401" y="409.165"/>
      <point x="334" y="493"/>
    </contour>
  </outline>
</glyph>
<glyph name="dcroat" format="1">
  <advance width="455"/>
  <unicode hex="0111"/>
  <outline>
    <contour>
      <point x="459" y="595" type="line"/>
      <point x="459" y="615" type="line"/>
      <point x="223" y="615" type="line"/>
      <point x="223" y="595" type="line"/>
    </contour>
    <contour>
      <point x="412" y="-1" type="line"/>
      <point x="413" y="-1"/>
      <point x="406" y="-1"/>
      <point x="391" y="-2" type="curve" smooth="yes"/>
      <point x="361" y="-4"/>
      <point x="317" y="-7"/>
      <point x="277" y="-9" type="curve" smooth="yes"/>
      <point x="257" y="-10"/>
      <point x="242" y="-11"/>
      <point x="233" y="-11" type="curve" smooth="yes"/>
      <point x="86" y="-11"/>
      <point x="28" y="49"/>
      <point x="28" y="168" type="curve" smooth="yes"/>
      <point x="28" y="358" type="line" smooth="yes"/>
      <point x="28" y="390"/>
      <point x="39" y="427"/>
      <point x="67" y="457" type="curve" smooth="yes"/>
      <point x="95" y="487"/>
      <point x="140" y="508"/>
      <point x="207" y="508" type="curve" smooth="yes"/>
      <point x="280" y="508"/>
      <point x="341" y="493"/>
      <point x="393" y="470" type="curve"/>
      <point x="393" y="698" type="line"/>
      <point x="412" y="698" type="line"/>
    </contour>
    <contour>
      <point x="393" y="450" type="line"/>
      <point x="341" y="474"/>
      <point x="281" y="491"/>
      <point x="205" y="491" type="curve" smooth="yes"/>
      <point x="154" y="491"/>
      <point x="115" y="476"/>
      <point x="88" y="451" type="curve" smooth="yes"/>
      <point x="61" y="426"/>
      <point x="48" y="391"/>
      <point x="48" y="354" type="curve" smooth="yes"/>
      <point x="48" y="161" type="line" smooth="yes"/>
      <point x="48" y="125"/>
      <point x="55" y="86"/>
      <point x="82" y="56" type="curve" smooth="yes"/>
      <point x="109" y="26"/>
      <point x="155" y="6"/>
      <point x="234" y="7" type="curve" smooth="yes"/>
      <point x="255" y="7"/>
      <point x="296" y="10"/>
      <point x="331" y="13" type="curve" smooth="yes"/>
      <point x="348" y="14"/>
      <point x="363" y="16"/>
      <point x="376" y="17" type="curve" smooth="yes"/>
      <point x="388" y="18"/>
      <point x="394" y="18"/>
      <point x="393" y="18" type="curve"/>
    </contour>
  </outline>
</glyph>
<glyph name="IJ" format="1">
  <advance width="558"/>
  <unicode hex="0132"/>
  <outline>
    <contour>
      <point x="519" y="698" type="line"/>
      <point x="519" y="185" type="line" smooth="yes"/>
      <point x="519" y="57.5471"/>
      <point x="434.039" y="-11"/>
      <point x="311" y="-11" type="curve" smooth="yes"/>
      <point x="186.122" y="-11"/>
      <point x="101" y="55.1661"/>
      <point x="101" y="185" type="curve" smooth="yes"/>
      <point x="101" y="234" type="line"/>
      <point x="119" y="234" type="line"/>
      <point x="119" y="184" type="line" smooth="yes"/>
      <point x="119" y="63.8501"/>
      <point x="205.675" y="7"/>
      <point x="311" y="7" type="curve" smooth="yes"/>
      <point x="423.819" y="7"/>
      <point x="500" y="66.6406"/>
      <point x="500" y="184" type="curve" smooth="yes"/>
      <point x="500" y="677" type="line"/>
      <point x="415" y="679" type="line"/>
      <point x="415" y="698" type="line"/>
    </contour>
    <contour>
      <point x="119" y="698" type="line"/>
      <point x="119" y="262" type="line"/>
      <point x="101" y="262" type="line"/>
      <point x="101" y="676" type="line"/>
      <point x="15" y="679" type="line"/>
      <point x="15" y="698" type="line"/>
    </contour>
  </outline>
</glyph>
<glyph name="Lslash" format="1">
  <advance width="504"/>
  <unicode hex="0141"/>
  <outline>
    <contour>
      <point x="125" y="0" type="line"/>
      <point x="125" y="386" type="line"/>
      <point x="25" y="341" type="line"/>
      <point x="17" y="358" type="line"/>
      <point x="125" y="406" type="line"/>
      <point x="125" y="698" type="line"/>
      <point x="145" y="698" type="line"/>
      <point x="145" y="415" type="line"/>
      <point x="307" y="488" type="line"/>
      <point x="315" y="472" type="line"/>
      <point x="145" y="395" type="line"/>
      <point x="145" y="20" type="line"/>
      <point x="486" y="20" type="line"/>
      <point x="486" y="0" type="line"/>
    </contour>
  </outline>
</glyph>
<glyph name="lslash" format="1">
  <advance width="334"/>
  <unicode hex="0142"/>
  <outline>
    <component base="l" xOffset="119"/>
    <contour>
      <point x="305" y="489" type="line"/>
      <point x="313" y="473" type="line"/>
      <point x="21" y="341" type="line"/>
      <point x="14" y="357" type="line"/>
    </contour>
  </outline>
</glyph>
<glyph name="Eng" format="1">
  <advance width="576"/>
  <unicode hex="014A"/>
  <outline>
    <contour>
      <point x="533" y="-67" type="line" smooth="yes"/>
      <point x="533" y="-113.667"/>
      <point x="522.667" y="-148.667"/>
      <point x="496" y="-174" type="curve" smooth="yes"/>
      <point x="480" y="-190"/>
      <point x="456.667" y="-201.333"/>
      <point x="426" y="-212" type="curve"/>
      <point x="421" y="-195" type="line"/>
      <point x="451.667" y="-183"/>
      <point x="461.667" y="-177.333"/>
      <point x="483" y="-160" type="curve" smooth="yes"/>
      <point x="504.333" y="-141.333"/>
      <point x="516" y="-111.333"/>
      <point x="516" y="-66" type="curve" smooth="yes"/>
      <point x="516" y="1" type="line"/>
      <point x="61" y="668" type="line"/>
      <point x="61" y="0" type="line"/>
      <point x="41" y="0" type="line"/>
      <point x="41" y="698" type="line"/>
      <point x="60" y="698" type="line"/>
      <point x="516" y="33" type="line"/>
      <point x="516" y="698" type="line"/>
      <point x="533" y="698" type="line"/>
    </contour>
  </outline>
</glyph>
<glyph name="OE" format="1">
  <advance width="794"/>
  <unicode hex="0152"/>
  <outline>
    <contour>
      <point x="433" y="0" type="line"/>
      <point x="433" y="95" type="line"/>
      <point x="400.737" y="28.4583"/>
      <point x="332.927" y="-11"/>
      <point x="243" y="-11" type="curve" smooth="yes"/>
      <point x="126.4" y="-11"/>
      <point x="33" y="56.1333"/>
      <point x="33" y="185" type="curve" smooth="yes"/>
      <point x="33" y="506" type="line" smooth="yes"/>
      <point x="33" y="642"/>
      <point x="113" y="714"/>
      <point x="245" y="714" type="curve" smooth="yes"/>
      <point x="337" y="714"/>
      <point x="402.333" y="673.333"/>
      <point x="433" y="604" type="curve"/>
      <point x="433" y="698" type="line"/>
      <point x="766" y="698" type="line"/>
      <point x="766" y="679" type="line"/>
      <point x="451" y="679" type="line"/>
      <point x="451" y="411" type="line"/>
      <point x="679" y="411" type="line"/>
      <point x="672" y="393" type="line"/>
      <point x="451" y="393" type="line"/>
      <point x="451" y="19" type="line"/>
      <point x="764" y="19" type="line"/>
      <point x="764" y="0" type="line"/>
    </contour>
    <contour>
      <point x="52" y="184" type="line" smooth="yes"/>
      <point x="52" y="77.0167"/>
      <point x="136.817" y="8"/>
      <point x="243" y="8" type="curve" smooth="yes"/>
      <point x="350.767" y="8"/>
      <point x="433" y="66.2167"/>
      <point x="433" y="184" type="curve" smooth="yes"/>
      <point x="433" y="517" type="line"/>
      <point x="429" y="627.667"/>
      <point x="364.667" y="693"/>
      <point x="242" y="693" type="curve" smooth="yes"/>
      <point x="116.667" y="693"/>
      <point x="52" y="620.667"/>
      <point x="52" y="506" type="curve" smooth="yes"/>
    </contour>
  </outline>
</glyph>
<glyph name="oe" format="1">
  <advance width="772"/>
  <unicode hex="0153"/>
  <outline>
    <contour>
      <point x="402" y="132" type="line" smooth="yes"/>
      <point x="402" y="36.3297"/>
      <point x="470.167" y="7"/>
      <point x="555" y="7" type="curve" smooth="yes"/>
      <point x="609.667" y="7"/>
      <point x="651.667" y="20"/>
      <point x="709" y="52" type="curve"/>
      <point x="718" y="35" type="line"/>
      <point x="667.333" y="4.33333"/>
      <point x="613" y="-12"/>
      <point x="557" y="-12" type="curve" smooth="yes"/>
      <point x="473.411" y="-12"/>
      <point x="399.624" y="14.3816"/>
      <point x="384" y="105" type="curve"/>
      <point x="362.667" y="35.6667"/>
      <point x="304.667" y="-10"/>
      <point x="214" y="-10" type="curve" smooth="yes"/>
      <point x="85.7333" y="-10"/>
      <point x="27" y="77.1667"/>
      <point x="27" y="184" type="curve" smooth="yes"/>
      <point x="27" y="315" type="line" smooth="yes"/>
      <point x="27" y="441.667"/>
      <point x="95.3333" y="510"/>
      <point x="214" y="510" type="curve" smooth="yes"/>
      <point x="307.333" y="510"/>
      <point x="366.667" y="462.667"/>
      <point x="388" y="384" type="curve"/>
      <point x="405.767" y="469.283"/>
      <point x="485.729" y="508"/>
      <point x="567" y="508" type="curve" smooth="yes"/>
      <point x="672.032" y="508"/>
      <point x="743" y="451.632"/>
      <point x="743" y="341" type="curve" smooth="yes"/>
      <point x="743" y="246" type="line"/>
      <point x="402" y="229" type="line"/>
    </contour>
    <contour>
      <point x="377" y="319" type="line" smooth="yes"/>
      <point x="377" y="433.667"/>
      <point x="308.667" y="492"/>
      <point x="214" y="492" type="curve" smooth="yes"/>
      <point x="103.47" y="492"/>
      <point x="47" y="427.512"/>
      <point x="47" y="319" type="curve" smooth="yes"/>
      <point x="47" y="184" type="line" smooth="yes"/>
      <point x="47" y="86.0167"/>
      <point x="103.117" y="8"/>
      <point x="214" y="8" type="curve" smooth="yes"/>
      <point x="328.067" y="8"/>
      <point x="377" y="83.7667"/>
      <point x="377" y="184" type="curve" smooth="yes"/>
    </contour>
    <contour>
      <point x="723" y="342" type="line" smooth="yes"/>
      <point x="723" y="441.949"/>
      <point x="658.844" y="491"/>
      <point x="564" y="491" type="curve" smooth="yes"/>
      <point x="462.76" y="491"/>
      <point x="402" y="434.556"/>
      <point x="402" y="332" type="curve" smooth="yes"/>
      <point x="402" y="248" type="line"/>
      <point x="723" y="264" type="line"/>
    </contour>
  </outline>
</glyph>
<glyph name="Tbar" format="1">
  <advance width="457"/>
  <unicode hex="0166"/>
  <outline>
    <contour>
      <point x="25" y="378" type="line"/>
      <point x="425" y="378" type="line"/>
      <point x="425" y="359" type="line"/>
      <point x="25" y="359" type="line"/>
    </contour>
    <contour>
      <point x="233" y="678" type="line"/>
      <point x="233" y="0" type="line"/>
      <point x="215" y="0" type="line"/>
      <point x="214" y="678" type="line"/>
      <point x="25" y="678" type="line"/>
      <point x="25" y="698" type="line"/>
      <point x="427" y="698" type="line"/>
      <point x="427" y="678" type="line"/>
    </contour>
  </outline>
</glyph>
<glyph name="ring" format="1">
  <advance width="266"/>
  <unicode hex="02DA"/>
  <outline>
    <contour>
      <point x="133" y="773" type="curve" smooth="yes"/>
      <point x="194.383" y="773"/>
      <point x="246" y="723.633"/>
      <point x="246" y="660" type="curve" smooth="yes"/>
      <point x="246" y="595.7"/>
      <point x="194.383" y="546"/>
      <point x="133" y="546" type="curve" smooth="yes"/>
      <point x="70.95" y="546"/>
      <point x="19" y="595.7"/>
      <point x="19" y="660" type="curve" smooth="yes"/>
      <point x="19" y="723.633"/>
      <point x="70.95" y="773"/>
    </contour>
    <contour>
      <point x="133" y="754" type="curve" smooth="yes"/>
      <point x="107" y="754"/>
      <point x="84.6667" y="744.833"/>
      <point x="66" y="726.5" type="curve" smooth="yes"/>
      <point x="47.3333" y="708.167"/>
      <point x="38" y="686"/>
      <point x="38" y="660" type="curve" smooth="yes"/>
      <point x="38" y="632.66"/>
      <point x="49.5648" y="608.229"/>
      <point x="67.855" y="590.99" type="curve" smooth="yes"/>
      <point x="84.9926" y="574.838"/>
      <point x="108.035" y="565"/>
      <point x="133" y="565" type="curve" smooth="yes"/>
      <point x="158.333" y="565"/>
      <point x="180.333" y="574.167"/>
      <point x="199" y="592.5" type="curve" smooth="yes"/>
      <point x="217.667" y="610.833"/>
      <point x="227" y="633.333"/>
      <point x="227" y="660" type="curve" smooth="yes"/>
      <point x="227" y="686"/>
      <point x="217.667" y="708.167"/>
      <point x="199" y="726.5" type="curve" smooth="yes"/>
      <point x="180.333" y="744.833"/>
      <point x="158.333" y="754"/>
    </contour>
  </outline>
</glyph>
<glyph name="hungarumlaut" format="1">
  <advance width="266"/>
  <unicode hex="02DD"/>
  <outline>
    <contour>
      <point x="142" y="682" type="curve" smooth="yes"/>
      <point x="87" y="582" type="line"/>
      <point x="66" y="582" type="line"/>
      <point x="116" y="696" type="line" smooth="yes"/>
      <point x="120" y="705.333"/>
      <point x="130" y="710.333"/>
      <point x="138" y="705" type="curve" smooth="yes"/>
      <point x="146" y="701"/>
      <point x="146.546" y="690.266"/>
    </contour>
    <contour>
      <point x="254" y="682" type="curve" smooth="yes"/>
      <point x="198" y="582" type="line"/>
      <point x="177" y="582" type="line"/>
      <point x="228" y="696" type="line" smooth="yes"/>
      <point x="232" y="705.333"/>
      <point x="241.625" y="709.302"/>
      <point x="249" y="705" type="curve" smooth="yes"/>
      <point x="257.771" y="699.884"/>
      <point x="258" y="690"/>
    </contour>
  </outline>
</glyph>
<glyph name="Theta" format="1">
  <advance width="486"/>
  <unicode hex="0398"/>
  <outline>
    <contour>
      <point x="33" y="506" type="line" smooth="yes"/>
      <point x="33" y="642"/>
      <point x="113" y="714"/>
      <point x="245" y="714" type="curve" smooth="yes"/>
      <point x="375.667" y="714"/>
      <point x="451" y="635.667"/>
      <point x="451" y="505" type="curve" smooth="yes"/>
      <point x="451" y="185" type="line" smooth="yes"/>
      <point x="451" y="62.8833"/>
      <point x="368.167" y="-11"/>
      <point x="243" y="-11" type="curve" smooth="yes"/>
      <point x="126.4" y="-11"/>
      <point x="33" y="56.1333"/>
      <point x="33" y="185" type="curve" smooth="yes"/>
    </contour>
    <contour>
      <point x="433" y="508" type="line" smooth="yes"/>
      <point x="433" y="622"/>
      <point x="368.667" y="694"/>
      <point x="242" y="694" type="curve" smooth="yes"/>
      <point x="116.667" y="694"/>
      <point x="52" y="621"/>
      <point x="52" y="506" type="curve" smooth="yes"/>
      <point x="52" y="359" type="line"/>
      <point x="433" y="359" type="line"/>
    </contour>
    <contour>
      <point x="243" y="8" type="curve" smooth="yes"/>
      <point x="350.767" y="8"/>
      <point x="433" y="66.2167"/>
      <point x="433" y="184" type="curve" smooth="yes"/>
      <point x="433" y="339" type="line"/>
      <point x="52" y="339" type="line"/>
      <point x="52" y="184" type="line" smooth="yes"/>
      <point x="52" y="68"/>
      <point x="136.817" y="8"/>
    </contour>
  </outline>
</glyph>
<glyph name="Sigma" format="1">
  <advance width="520"/>
  <unicode hex="03A3"/>
  <outline>
    <contour>
      <point x="330" y="20" type="line" smooth="yes"/>
      <point x="405.516" y="20"/>
      <point x="448.962" y="34.8655"/>
      <point x="471" y="112" type="curve"/>
      <point x="491" y="106" type="line"/>
      <point x="469.667" y="31.3333"/>
      <point x="425.667" y="0"/>
      <point x="347" y="0" type="curve" smooth="yes"/>
      <point x="25" y="0" type="line"/>
      <point x="250" y="383" type="line"/>
      <point x="41" y="700" type="line"/>
      <point x="468" y="700" type="line"/>
      <point x="459" y="680" type="line"/>
      <point x="76" y="680" type="line"/>
      <point x="273" y="382" type="line"/>
      <point x="59" y="20" type="line"/>
    </contour>
  </outline>
</glyph>
<glyph name="Psi" format="1">
  <advance width="589"/>
  <unicode hex="03A8"/>
  <outline>
    <contour>
      <point x="51" y="405" type="line" smooth="yes"/>
      <point x="51" y="283.667"/>
      <point x="116.333" y="229"/>
      <point x="219" y="229" type="curve" smooth="yes"/>
      <point x="280" y="229" type="line"/>
      <point x="280" y="698" type="line"/>
      <point x="300" y="698" type="line"/>
      <point x="300" y="229" type="line"/>
      <point x="370" y="229" type="line" smooth="yes"/>
      <point x="480.667" y="229"/>
      <point x="539" y="293"/>
      <point x="539" y="405" type="curve" smooth="yes"/>
      <point x="539" y="597" type="line" smooth="yes"/>
      <point x="539" y="667.62"/>
      <point x="506.399" y="685.746"/>
      <point x="484" y="700" type="curve"/>
      <point x="501" y="707" type="line"/>
      <point x="511.224" y="702.91"/>
      <point x="556" y="675.738"/>
      <point x="556" y="598" type="curve" smooth="yes"/>
      <point x="556" y="405" type="line" smooth="yes"/>
      <point x="556" y="283.667"/>
      <point x="496.667" y="212"/>
      <point x="370" y="212" type="curve" smooth="yes"/>
      <point x="300" y="212" type="line"/>
      <point x="300" y="0" type="line"/>
      <point x="280" y="0" type="line"/>
      <point x="280" y="212" type="line"/>
      <point x="219" y="212" type="line" smooth="yes"/>
      <point x="93.6667" y="212"/>
      <point x="31" y="283.667"/>
      <point x="31" y="405" type="curve" smooth="yes"/>
      <point x="31" y="698" type="line"/>
      <point x="51" y="698" type="line"/>
    </contour>
  </outline>
</glyph>
<glyph name="alpha" format="1">
  <advance width="437"/>
  <unicode hex="03B1"/>
  <outline>
    <contour>
      <point x="401" y="485" type="line"/>
      <point x="401" y="485"/>
      <point x="394" y="454.333"/>
      <point x="394" y="433" type="curve" smooth="yes"/>
      <point x="394" y="4" type="line"/>
      <point x="395.333" y="4.8889"/>
      <point x="279.333" y="-4.88888"/>
      <point x="206" y="-4" type="curve"/>
      <point x="69.8961" y="-4"/>
      <point x="30" y="75.5368"/>
      <point x="30" y="157" type="curve" smooth="yes"/>
      <point x="30" y="353" type="line" smooth="yes"/>
      <point x="30" y="473.9"/>
      <point x="107.65" y="506"/>
      <point x="186" y="506" type="curve" smooth="yes"/>
      <point x="247.333" y="506"/>
      <point x="315.667" y="483.667"/>
      <point x="377" y="453" type="curve"/>
      <point x="379.667" y="470.333"/>
      <point x="385" y="488"/>
      <point x="385" y="488" type="curve"/>
    </contour>
    <contour>
      <point x="49" y="162" type="line" smooth="yes"/>
      <point x="49" y="64.6667"/>
      <point x="100.667" y="14"/>
      <point x="206" y="14" type="curve"/>
      <point x="274.438" y="13.1111"/>
      <point x="376.993" y="22.8889"/>
      <point x="375" y="22" type="curve"/>
      <point x="375" y="432" type="line"/>
      <point x="316" y="466"/>
      <point x="243.667" y="487"/>
      <point x="181" y="487" type="curve" smooth="yes"/>
      <point x="92.55" y="487"/>
      <point x="49" y="437.733"/>
      <point x="49" y="350" type="curve" smooth="yes"/>
    </contour>
  </outline>
</glyph>
<glyph name="beta" format="1">
  <advance width="441"/>
  <unicode hex="03B2"/>
  <outline>
    <contour>
      <point x="39" y="520" type="line" smooth="yes"/>
      <point x="39" y="616.367"/>
      <point x="104.45" y="701"/>
      <point x="207" y="701" type="curve" smooth="yes"/>
      <point x="300.333" y="701"/>
      <point x="357" y="638.736"/>
      <point x="350" y="552" type="curve" smooth="yes"/>
      <point x="345.497" y="496.038"/>
      <point x="308.28" y="435.665"/>
      <point x="235" y="403" type="curve"/>
      <point x="262" y="404" type="line"/>
      <point x="396.485" y="404"/>
      <point x="411" y="316.922"/>
      <point x="411" y="253" type="curve" smooth="yes"/>
      <point x="411" y="168" type="line" smooth="yes"/>
      <point x="411" y="49.5667"/>
      <point x="364.1" y="-11"/>
      <point x="219" y="-11" type="curve" smooth="yes"/>
      <point x="197.205" y="-11"/>
      <point x="100" y="-6"/>
      <point x="59" y="-2" type="curve"/>
      <point x="59" y="-212" type="line"/>
      <point x="39" y="-206" type="line"/>
    </contour>
    <contour>
      <point x="59" y="520" type="curve" smooth="yes"/>
      <point x="59" y="386" type="line"/>
      <point x="152.928" y="397" type="line" smooth="yes"/>
      <point x="227.04" y="405.664"/>
      <point x="320.971" y="458.735"/>
      <point x="330" y="553" type="curve" smooth="yes"/>
      <point x="337.009" y="627.1"/>
      <point x="286.667" y="681"/>
      <point x="208" y="681" type="curve" smooth="yes"/>
      <point x="115.867" y="681"/>
      <point x="59" y="605.283"/>
    </contour>
    <contour>
      <point x="59" y="18" type="line"/>
      <point x="57.1176" y="18.4379"/>
      <point x="174.451" y="7.66012"/>
      <point x="219" y="7" type="curve" smooth="yes"/>
      <point x="376.575" y="4.3292"/>
      <point x="394" y="89.2628"/>
      <point x="394" y="161" type="curve" smooth="yes"/>
      <point x="394" y="250" type="line" smooth="yes"/>
      <point x="394" y="323.35"/>
      <point x="367.767" y="385"/>
      <point x="264" y="385" type="curve" smooth="yes"/>
      <point x="234.816" y="385"/>
      <point x="198.081" y="382.389"/>
      <point x="154.978" y="377" type="curve" smooth="yes"/>
      <point x="59" y="365" type="line"/>
    </contour>
  </outline>
</glyph>
<glyph name="gamma" format="1">
  <advance width="499"/>
  <unicode hex="03B3"/>
  <outline>
    <contour>
      <point x="479" y="492" type="line"/>
      <point x="420.603" y="465.822"/>
      <point x="408" y="423"/>
      <point x="396" y="384" type="curve" smooth="yes"/>
      <point x="252" y="-91" type="line" smooth="yes"/>
      <point x="239" y="-134"/>
      <point x="206.555" y="-198"/>
      <point x="113" y="-198" type="curve"/>
      <point x="108" y="-179" type="line"/>
      <point x="203.635" y="-179"/>
      <point x="222.977" y="-117.072"/>
      <point x="235" y="-79" type="curve" smooth="yes"/>
      <point x="257" y="-6" type="line"/>
      <point x="187.953" y="-1.93842"/>
      <point x="151.119" y="47.602"/>
      <point x="127" y="128" type="curve" smooth="yes"/>
      <point x="19" y="498" type="line"/>
      <point x="38" y="498" type="line"/>
      <point x="143" y="139" type="line" smooth="yes"/>
      <point x="167" y="56"/>
      <point x="200" y="15"/>
      <point x="264" y="15" type="curve"/>
      <point x="377" y="386" type="line" smooth="yes"/>
      <point x="397.278" y="450.889"/>
      <point x="413.539" y="479.296"/>
      <point x="469" y="506" type="curve"/>
    </contour>
  </outline>
</glyph>
<glyph name="zeta" format="1">
  <advance width="397"/>
  <unicode hex="03B6"/>
  <outline>
    <contour>
      <point x="372" y="678" type="line"/>
      <point x="303.758" y="624"/>
      <point x="248.988" y="562.996"/>
      <point x="203" y="509" type="curve" smooth="yes"/>
      <point x="164.313" y="463.576"/>
      <point x="129.427" y="417.308"/>
      <point x="106" y="373" type="curve" smooth="yes"/>
      <point x="68.0905" y="301.302"/>
      <point x="47" y="236.667"/>
      <point x="47" y="178" type="curve" smooth="yes"/>
      <point x="47" y="128.667"/>
      <point x="60.6022" y="89.5532"/>
      <point x="92" y="62" type="curve" smooth="yes"/>
      <point x="140.539" y="19"/>
      <point x="252.179" y="2.44665"/>
      <point x="378" y="22" type="curve"/>
      <point x="378" y="-211" type="line"/>
      <point x="358" y="-205" type="line"/>
      <point x="358" y="-1" type="line"/>
      <point x="244.6" y="-17.0248"/>
      <point x="131" y="-2"/>
      <point x="75" y="50" type="curve" smooth="yes"/>
      <point x="39" y="84.6667"/>
      <point x="23.6667" y="130.667"/>
      <point x="25" y="184" type="curve"/>
      <point x="27.6667" y="242.667"/>
      <point x="49.3334" y="311.333"/>
      <point x="88" y="382" type="curve" smooth="yes"/>
      <point x="114.667" y="428.667"/>
      <point x="147.095" y="474.144"/>
      <point x="185" y="519" type="curve" smooth="yes"/>
      <point x="233.762" y="576.704"/>
      <point x="287.708" y="631.721"/>
      <point x="336" y="678" type="curve"/>
      <point x="94" y="678" type="line"/>
      <point x="94" y="698" type="line"/>
      <point x="366" y="698" type="line"/>
    </contour>
  </outline>
</glyph>
<glyph name="eta" format="1">
  <advance width="442"/>
  <unicode hex="03B7"/>
  <outline>
    <contour>
      <point x="386" y="346" type="line" smooth="yes"/>
      <point x="386" y="459.454"/>
      <point x="323.913" y="498.995"/>
      <point x="216" y="493" type="curve" smooth="yes"/>
      <point x="158.667" y="490.333"/>
      <point x="94.6667" y="471.667"/>
      <point x="56" y="453" type="curve"/>
      <point x="56" y="0" type="line"/>
      <point x="38" y="0" type="line"/>
      <point x="38" y="499" type="line"/>
      <point x="56" y="499" type="line"/>
      <point x="56" y="471" type="line"/>
      <point x="89.3333" y="485.667"/>
      <point x="151" y="505.333"/>
      <point x="203" y="508" type="curve" smooth="yes"/>
      <point x="289.511" y="513.243"/>
      <point x="406" y="501.563"/>
      <point x="406" y="345" type="curve" smooth="yes"/>
      <point x="406" y="-212" type="line"/>
      <point x="386" y="-205" type="line"/>
    </contour>
  </outline>
</glyph>
<glyph name="kappa" format="1">
  <advance width="428"/>
  <unicode hex="03BA"/>
  <outline>
    <contour>
      <point x="291" y="112" type="line"/>
      <point x="337.667" y="50.6667"/>
      <point x="375.333" y="19"/>
      <point x="406" y="19" type="curve"/>
      <point x="406" y="-1" type="line"/>
      <point x="388.667" y="-1"/>
      <point x="369.667" y="6.66667"/>
      <point x="349" y="22" type="curve" smooth="yes"/>
      <point x="338.333" y="30"/>
      <point x="326" y="40.6667"/>
      <point x="314" y="54" type="curve" smooth="yes"/>
      <point x="303.333" y="67.3333"/>
      <point x="290.667" y="80.6667"/>
      <point x="280" y="98" type="curve"/>
      <point x="151" y="277" type="line"/>
      <point x="56" y="178" type="line"/>
      <point x="56" y="0" type="line"/>
      <point x="38" y="0" type="line"/>
      <point x="38" y="510" type="line"/>
      <point x="56" y="506" type="line"/>
      <point x="56" y="205" type="line"/>
      <point x="328" y="499" type="line"/>
      <point x="354" y="499" type="line"/>
      <point x="163" y="291" type="line"/>
    </contour>
  </outline>
</glyph>
<glyph name="lambda" format="1">
  <advance width="499"/>
  <unicode hex="03BB"/>
  <outline>
    <contour>
      <point x="400" y="113" type="line" smooth="yes"/>
      <point x="412.434" y="73.6261"/>
      <point x="422.028" y="33.4535"/>
      <point x="483" y="5" type="curve"/>
      <point x="483" y="5"/>
      <point x="480" y="2.6667"/>
      <point x="472" y="-8" type="curve"/>
      <point x="417.884" y="18.0559"/>
      <point x="399.965" y="47.1122"/>
      <point x="380" y="111" type="curve" smooth="yes"/>
      <point x="354.52" y="196.957"/>
      <point x="268.09" y="484.055"/>
      <point x="268" y="483" type="curve"/>
      <point x="202.667" y="483"/>
      <point x="171" y="441.667"/>
      <point x="147" y="359" type="curve"/>
      <point x="146.496" y="354.131"/>
      <point x="40.114" y="-2.942"/>
      <point x="41" y="-1" type="curve"/>
      <point x="23" y="-1" type="line"/>
      <point x="23.0394" y="-3.3275"/>
      <point x="103.161" y="279.339"/>
      <point x="131" y="370" type="curve"/>
      <point x="152.791" y="449.239"/>
      <point x="192.235" y="501.977"/>
      <point x="259" y="504" type="curve"/>
      <point x="237" y="576" type="line" smooth="yes"/>
      <point x="225.322" y="614.927"/>
      <point x="206.476" y="676"/>
      <point x="112" y="676" type="curve"/>
      <point x="116" y="695" type="line"/>
      <point x="210.476" y="695"/>
      <point x="240.046" y="630.545"/>
      <point x="256" y="588" type="curve"/>
    </contour>
  </outline>
</glyph>
<glyph name="rho" format="1">
  <advance width="435"/>
  <unicode hex="03C1"/>
  <outline>
    <contour>
      <point x="404" y="170" type="line" smooth="yes"/>
      <point x="404" y="47.3333"/>
      <point x="340" y="-18"/>
      <point x="229" y="-18" type="curve" smooth="yes"/>
      <point x="166" y="-18"/>
      <point x="78.7299" y="16"/>
      <point x="55" y="76" type="curve"/>
      <point x="55" y="-212" type="line"/>
      <point x="35" y="-206" type="line"/>
      <point x="35" y="310" type="line" smooth="yes"/>
      <point x="35" y="436.667"/>
      <point x="102.333" y="506"/>
      <point x="221" y="506" type="curve" smooth="yes"/>
      <point x="339.667" y="506"/>
      <point x="404" y="431.333"/>
      <point x="404" y="310" type="curve" smooth="yes"/>
    </contour>
    <contour>
      <point x="384" y="315" type="line" smooth="yes"/>
      <point x="384" y="429.667"/>
      <point x="317" y="486"/>
      <point x="221" y="486" type="curve" smooth="yes"/>
      <point x="111.222" y="486"/>
      <point x="55" y="423.14"/>
      <point x="55" y="315" type="curve" smooth="yes"/>
      <point x="55" y="142" type="line"/>
      <point x="52.5833" y="46.3333"/>
      <point x="159.667" y="-7.33333"/>
      <point x="245" y="-1" type="curve"/>
      <point x="331.667" y="4.33333"/>
      <point x="384" y="62.6667"/>
      <point x="384" y="164" type="curve" smooth="yes"/>
    </contour>
  </outline>
</glyph>
<glyph name="sigma1" format="1">
  <advance width="335"/>
  <unicode hex="03C2"/>
  <outline>
    <contour>
      <point x="41" y="283" type="line" smooth="yes"/>
      <point x="41" y="233.959"/>
      <point x="52.749" y="200.637"/>
      <point x="109" y="162" type="curve" smooth="yes"/>
      <point x="208" y="94" type="line" smooth="yes"/>
      <point x="255.794" y="61.1716"/>
      <point x="281" y="28.8906"/>
      <point x="281" y="-22" type="curve" smooth="yes"/>
      <point x="281" y="-79.4283"/>
      <point x="229.766" y="-120.715"/>
      <point x="193" y="-142" type="curve"/>
      <point x="183" y="-124" type="line"/>
      <point x="218.824" y="-102.108"/>
      <point x="261" y="-67.9138"/>
      <point x="261" y="-22" type="curve" smooth="yes"/>
      <point x="261" y="19.3333"/>
      <point x="237.466" y="49.2055"/>
      <point x="197" y="77" type="curve" smooth="yes"/>
      <point x="98" y="145" type="line" smooth="yes"/>
      <point x="40.6011" y="184.425"/>
      <point x="21" y="224.333"/>
      <point x="21" y="283" type="curve" smooth="yes"/>
      <point x="21" y="342.201" type="line" smooth="yes"/>
      <point x="21" y="456.07"/>
      <point x="107.48" y="502.611"/>
      <point x="184" y="503" type="curve"/>
      <point x="259.017" y="503"/>
      <point x="308" y="469.283"/>
      <point x="308" y="468" type="curve"/>
      <point x="298" y="453" type="line"/>
      <point x="298.25" y="451.667"/>
      <point x="251.25" y="486.333"/>
      <point x="184" y="485" type="curve"/>
      <point x="123.767" y="485"/>
      <point x="41" y="449.888"/>
      <point x="41" y="348" type="curve" smooth="yes"/>
    </contour>
  </outline>
</glyph>
<glyph name="quotesinglbase" format="1">
  <advance width="113"/>
  <unicode hex="201A"/>
  <outline>
    <contour>
      <point x="31" y="-31" type="line"/>
      <point x="51" y="-12.3333"/>
      <point x="55.6667" y="10.6667"/>
      <point x="57" y="24" type="curve"/>
      <point x="50.3333" y="26.6667"/>
      <point x="46" y="32"/>
      <point x="46" y="40" type="curve" smooth="yes"/>
      <point x="46" y="50.6667"/>
      <point x="52.6667" y="57"/>
      <point x="62" y="57" type="curve" smooth="yes"/>
      <point x="72.6667" y="57"/>
      <point x="79" y="50.6667"/>
      <point x="79" y="40" type="curve"/>
      <point x="79.3333" y="-13.2222"/>
      <point x="39.6666" y="-37.1111"/>
      <point x="40" y="-37" type="curve"/>
    </contour>
  </outline>
</glyph>
<glyph name="Euro" format="1">
  <advance width="420"/>
  <unicode hex="20AC"/>
  <outline>
    <component base="C"/>
    <contour>
      <point x="12" y="393" type="line"/>
      <point x="12" y="411" type="line"/>
      <point x="351" y="411" type="line"/>
      <point x="351" y="393" type="line"/>
    </contour>
    <contour>
      <point x="12" y="288" type="line"/>
      <point x="12" y="307" type="line"/>
      <point x="351" y="307" type="line"/>
      <point x="351" y="288" type="line"/>
    </contour>
  </outline>
</glyph>
<glyph name="Y_upper_alt" format="1">
  <advance width="482"/>
  <unicode hex="9997"/>
  <outline>
    <contour>
      <point x="248" y="341" type="line"/>
      <point x="248" y="0" type="line"/>
      <point x="230" y="0" type="line"/>
      <point x="230" y="341" type="line"/>
      <point x="5" y="698" type="line"/>
      <point x="28" y="698" type="line"/>
      <point x="239" y="361" type="line"/>
      <point x="452" y="698" type="line"/>
      <point x="475" y="698" type="line"/>
    </contour>
  </outline>
</glyph>
<glyph name="uni0326" format="1">
  <advance width="266"/>
  <unicode hex="F6C3"/>
  <outline>
    <contour>
      <point x="109" y="-167" type="line"/>
      <point x="128" y="-148"/>
      <point x="134" y="-128"/>
      <point x="135" y="-113" type="curve"/>
      <point x="128" y="-110"/>
      <point x="124" y="-104"/>
      <point x="124" y="-97" type="curve" smooth="yes"/>
      <point x="124" y="-88"/>
      <point x="131" y="-80"/>
      <point x="140" y="-80" type="curve" smooth="yes"/>
      <point x="151" y="-80"/>
      <point x="157" y="-86"/>
      <point x="157" y="-97" type="curve" smooth="yes"/>
      <point x="157" y="-124"/>
      <point x="148" y="-142"/>
      <point x="137" y="-155" type="curve" smooth="yes"/>
      <point x="131" y="-162"/>
      <point x="125" y="-169"/>
      <point x="118" y="-174" type="curve"/>
    </contour>
  </outline>
</glyph>
<glyph name="ff" format="1">
  <advance width="491"/>
  <unicode hex="FB00"/>
  <outline>
    <contour>
      <point x="466" y="667" type="line"/>
      <point x="426" y="681.667"/>
      <point x="385.667" y="685.333"/>
      <point x="347" y="664" type="curve"/>
      <point x="312.333" y="642.667"/>
      <point x="292" y="609.667"/>
      <point x="292" y="559" type="curve" smooth="yes"/>
      <point x="292" y="498" type="line"/>
      <point x="441" y="498" type="line"/>
      <point x="433" y="482" type="line"/>
      <point x="292" y="482" type="line"/>
      <point x="292" y="0" type="line"/>
      <point x="271" y="0" type="line"/>
      <point x="271" y="560" type="line" smooth="yes"/>
      <point x="271" y="594.667"/>
      <point x="280.667" y="625"/>
      <point x="298" y="649" type="curve"/>
      <point x="268.667" y="674.333"/>
      <point x="226.333" y="686.333"/>
      <point x="189" y="685" type="curve"/>
      <point x="119.433" y="685"/>
      <point x="59" y="640.983"/>
      <point x="59" y="557" type="curve" smooth="yes"/>
      <point x="59" y="498" type="line"/>
      <point x="209" y="498" type="line"/>
      <point x="201" y="482" type="line"/>
      <point x="59" y="482" type="line"/>
      <point x="59" y="0" type="line"/>
      <point x="39" y="0" type="line"/>
      <point x="39" y="560" type="line" smooth="yes"/>
      <point x="39" y="655.792"/>
      <point x="114.347" y="702.011"/>
      <point x="180" y="704" type="curve" smooth="yes"/>
      <point x="229.333" y="705.333"/>
      <point x="267.667" y="696.667"/>
      <point x="313" y="662" type="curve"/>
      <point x="339.667" y="686"/>
      <point x="370.333" y="698"/>
      <point x="405" y="698" type="curve" smooth="yes"/>
      <point x="427.667" y="698"/>
      <point x="457.333" y="691.667"/>
      <point x="472" y="681" type="curve"/>
    </contour>
  </outline>
</glyph>
<glyph name="gamma_gamma" format="1">
  <advance width="900"/>
  <outline>
    <contour>
      <point x="432" y="500" type="line"/>
      <point x="253" y="-92" type="line" smooth="yes"/>
      <point x="240" y="-135"/>
      <point x="207" y="-199"/>
      <point x="114" y="-199" type="curve"/>
      <point x="109" y="-180" type="line"/>
      <point x="204" y="-180"/>
      <point x="225" y="-118"/>
      <point x="237" y="-79" type="curve" smooth="yes"/>
      <point x="259" y="-6" type="line"/>
      <point x="190" y="-2"/>
      <point x="152" y="48"/>
      <point x="128" y="129" type="curve" smooth="yes"/>
      <point x="19" y="500" type="line"/>
      <point x="38" y="500" type="line"/>
      <point x="144" y="140" type="line" smooth="yes"/>
      <point x="169" y="56"/>
      <point x="201" y="15"/>
      <point x="265" y="15" type="curve"/>
      <point x="413" y="500" type="line"/>
    </contour>
    <contour>
      <point x="882" y="494" type="line"/>
      <point x="830" y="471"/>
      <point x="814" y="437"/>
      <point x="798" y="385" type="curve" smooth="yes"/>
      <point x="654" y="-92" type="line" smooth="yes"/>
      <point x="641" y="-135"/>
      <point x="608" y="-199"/>
      <point x="515" y="-199" type="curve"/>
      <point x="510" y="-180" type="line"/>
      <point x="605" y="-180"/>
      <point x="625" y="-118"/>
      <point x="637" y="-79" type="curve" smooth="yes"/>
      <point x="659" y="-6" type="line"/>
      <point x="590" y="-2"/>
      <point x="553" y="48"/>
      <point x="529" y="129" type="curve" smooth="yes"/>
      <point x="420" y="500" type="line"/>
      <point x="439" y="500" type="line"/>
      <point x="545" y="140" type="line" smooth="yes"/>
      <point x="569" y="56"/>
      <point x="602" y="15"/>
      <point x="666" y="15" type="curve"/>
      <point x="779" y="387" type="line" smooth="yes"/>
      <point x="799" y="453"/>
      <point x="816" y="481"/>
      <point x="872" y="508" type="curve"/>
    </contour>
  </outline>
</glyph>
<glyph name="uni030C" format="1">
  <advance width="266"/>
  <outline>
    <contour>
      <point x="254" y="706" type="line"/>
      <point x="132" y="587" type="line"/>
      <point x="12" y="705" type="line"/>
      <point x="27" y="721" type="line"/>
      <point x="132" y="617" type="line"/>
      <point x="240" y="721" type="line"/>
    </contour>
  </outline>
</glyph>
<glyph name="uni0328" format="1">
  <advance width="266"/>
  <outline>
    <contour>
      <point x="143" y="11" type="line"/>
      <point x="143" y="2" type="line"/>
      <point x="71" y="-123" type="line" smooth="yes"/>
      <point x="56" y="-150"/>
      <point x="59" y="-175"/>
      <point x="75" y="-191" type="curve" smooth="yes"/>
      <point x="90" y="-207"/>
      <point x="117" y="-215"/>
      <point x="150" y="-204" type="curve" smooth="yes"/>
      <point x="159" y="-201"/>
      <point x="167" y="-197"/>
      <point x="176" y="-194" type="curve"/>
      <point x="184" y="-191"/>
      <point x="192" y="-189"/>
      <point x="199" y="-186" type="curve" smooth="yes"/>
      <point x="206" y="-183"/>
      <point x="211" y="-181"/>
      <point x="216" y="-180" type="curve"/>
      <point x="220" y="-179"/>
      <point x="222" y="-178"/>
      <point x="222" y="-178" type="curve"/>
      <point x="228" y="-198" type="line"/>
      <point x="228" y="-198"/>
      <point x="224" y="-199"/>
      <point x="216" y="-202" type="curve"/>
      <point x="207" y="-205"/>
      <point x="198" y="-208"/>
      <point x="188" y="-211" type="curve"/>
      <point x="167" y="-219"/>
      <point x="143" y="-226"/>
      <point x="138" y="-227" type="curve"/>
      <point x="101" y="-232"/>
      <point x="72" y="-220"/>
      <point x="56" y="-198" type="curve" smooth="yes"/>
      <point x="40" y="-176"/>
      <point x="38" y="-146"/>
      <point x="55" y="-114" type="curve"/>
      <point x="127" y="3" type="line"/>
      <point x="127" y="10" type="line"/>
    </contour>
  </outline>
</glyph>
